<svg version="1.1" viewBox="0 0 95.412 68.464" xmlns="http://www.w3.org/2000/svg" preserveAspectRatio="none">
<g transform="translate(-45.889 -100.5)">
<g transform="translate(0 13.474)">
<g>
<rect x="45.889" y="87.025" width="95.412" height="68.464" ry="4.5435" fill="#474745" stroke-linejoin="round" stroke-width="3.0424"/>
<path d="m58.984 115.72v9.8795l6.6916 6.4562h55.838l6.6916-6.8505v-9.3638z" fill="#707070"/>
<g fill="#d4b05a">
<rect x="106.01" y="122.2" width="2.4096" height="5.1887" ry=".66259"/>
<rect x="99.135" y="122.2" width="2.4096" height="5.1887" ry=".66259"/>
<rect x="92.256" y="122.2" width="2.4096" height="5.1887" ry=".66259"/>
<rect x="85.377" y="122.2" width="2.4096" height="5.1887" ry=".66259"/>
<rect x="78.498" y="122.2" width="2.4096" height="5.1887" ry=".66259"/>
</g>
<rect x="74.274" y="115.38" width="38.642" height="8.0099" ry="1.4711" fill="#292929"/>
<rect x="115.3" y="110.19" width="5.2653" height="5.7702" ry=".88019" fill="#b4b4ae"/>
<rect x="66.62" y="110.19" width="5.2653" height="5.7702" ry=".88019" fill="#b4b4ae"/>
</g>
<path d="m58.984 116.78v7.7628c0 .5845.341 1.3873.76163 1.7932l5.1683 4.9865c.42064.40584 1.2355.73484 1.82.73484h53.721c.5845 0 1.3894-.33896 1.7978-.75708 1.7375-1.7788 3.475-3.5576 5.2125-5.3364.40842-.41812.73952-1.2309.73952-1.8154v-7.2472c0-.5845-.47383-1.0592-1.0583-1.0602-22.368-.0393-44.736-.0784-67.104-.11763-.5845-.001-1.0583.47198-1.0583 1.0565z" fill="none" stroke="#d6d6d2" stroke-width="1.6"/>
</g>
</g>
</svg>