<?xml version="1.0" encoding="utf-8"?>
<!-- Svg Vector Icons : http://www.onlinewebfonts.com/icon -->
<!DOCTYPE svg PUBLIC "-//W3C//DTD SVG 1.1//EN" "http://www.w3.org/Graphics/SVG/1.1/DTD/svg11.dtd">
<svg version="1.1" xmlns="http://www.w3.org/2000/svg" xmlns:xlink="http://www.w3.org/1999/xlink" x="0px" y="0px" viewBox="0 0 1000 1000" enable-background="new 0 0 1000 1000" xml:space="preserve">
<metadata> Svg Vector Icons : http://www.onlinewebfonts.com/icon </metadata>
<g><g transform="translate(0.000000,511.000000) scale(0.100000,-0.100000)"><path d="M4366.8,4987.1C2262.3,4701.4,584.5,3117.6,165.1,1020.4C78.3,586.5,78.3-368.1,165.1-802c394.2-1974.3,1869.4-3467.6,3858.2-3908.8c473.7-101.2,1424.7-108.5,1898.3-10.8c1999.6,415.8,3496.6,1909.2,3908.8,3908.8c90.4,441.1,94,1384.9,3.6,1833.3c-397.7,1985.1-1938.1,3532.7-3901.6,3916C5570.8,5008.7,4713.9,5034.1,4366.8,4987.1z M5469.6,1627.9V796.2h1139h1139V127.3v-668.9h-1139h-1139V-1395c0-538.8-14.4-846.1-36.2-838.9c-79.6,25.3-3145.8,2325-3138.6,2350.3c14.5,36.2,3109.7,2339.5,3149.4,2343.1C5458.8,2459.5,5469.6,2087.1,5469.6,1627.9z"/></g></g>
</svg>